# xmcd CD database file
#
# Track frame offsets:
#	150
#	13854
#	29629
#	47099
#	62460
#	80050
#	91813
#	107112
#	126602
#	142052
#	161694
#	178871
#
# Disc length: 2561 seconds
#
# Revision: 0
# Processed by: cddbd v1.4PL0 Copyright (c) Steve Scherf et al.
# Submitted via: CDex 1.50beta10
#
DISCID=ad09ff0c
DTITLE=Barbara Lynn - Until Then I'll Suffer
DYEAR=1996
DGENRE=Blues
TTITLE0=Forever
TTITLE1=I'd Rather Go Blind
TTITLE2=You'll Lose A Good Thing (Live)
TTITLE3=Until Then I'll Suffer
TTITLE4=To Get You Back Again
TTITLE5=This Is The Thanks I Get
TTITLE6=What Now
TTITLE7=Tonight Is The Night
TTITLE8=Let's Stay Together
TTITLE9=Somebody Please
TTITLE10=You're Gonna Need Me
TTITLE11=I Like The Way You Love Me
EXTD=YEAR: 1996
EXTT0=
EXTT1=
EXTT2=
EXTT3=
EXTT4=
EXTT5=
EXTT6=
EXTT7=
EXTT8=
EXTT9=
EXTT10=
EXTT11=
PLAYORDER=
